<mxfile host="Electron" modified="2024-09-12T15:30:21.647Z" agent="Mozilla/5.0 (X11; Linux x86_64) AppleWebKit/537.36 (KHTML, like Gecko) draw.io/24.6.4 Chrome/124.0.6367.207 Electron/30.0.6 Safari/537.36" etag="j_fuWXXW8cSyHIY3-ibz" border="50" scale="3" compressed="false" locked="false" version="24.6.4" type="device">
  <diagram name="FHS" id="YmL12bMKpDGza6XwsDPr">
    <mxGraphModel dx="1114" dy="1231" grid="0" gridSize="10" guides="1" tooltips="1" connect="1" arrows="1" fold="1" page="0" pageScale="1" pageWidth="827" pageHeight="1169" background="none" math="1" shadow="0">
      <root>
        <mxCell id="X5NqExCQtvZxIxQ7pmgY-0" />
        <mxCell id="1" parent="X5NqExCQtvZxIxQ7pmgY-0" />
        <mxCell id="-dcGEVKdCbEMzyg4yERX-61" value="EstÃ¡ndar FHS" style="rounded=1;whiteSpace=wrap;html=1;arcSize=2;fillColor=#dae8fc;strokeColor=#6c8ebf;verticalAlign=top;fontSize=18;fontStyle=1" vertex="1" parent="1">
          <mxGeometry x="904" y="-15" width="820" height="699" as="geometry" />
        </mxCell>
        <mxCell id="Gr0Zq-AI6Quabplr0KPa-179" value="Mindmap" style="swimlane;html=1;startSize=20;horizontal=1;containerType=tree;labelBackgroundColor=none;strokeColor=#D4E1F5;strokeWidth=1;fillColor=none;fontFamily=Comic Sans MS;fontSize=9;swimlaneLine=0;dashed=1;collapsible=0;" parent="1" vertex="1">
          <mxGeometry x="84" y="80" width="478" height="441" as="geometry" />
        </mxCell>
        <mxCell id="Gr0Zq-AI6Quabplr0KPa-180" value="&lt;font face=&quot;Comic Sans MS&quot;&gt;/&lt;/font&gt;" style="ellipse;whiteSpace=wrap;html=1;align=center;container=1;recursiveResize=0;treeFolding=1;strokeWidth=2;" parent="Gr0Zq-AI6Quabplr0KPa-179" vertex="1">
          <mxGeometry x="285" y="145" width="108" height="53" as="geometry" />
        </mxCell>
        <mxCell id="Gr0Zq-AI6Quabplr0KPa-181" value="" style="whiteSpace=wrap;html=1;rounded=1;arcSize=50;align=center;verticalAlign=middle;container=1;recursiveResize=0;strokeWidth=1;autosize=1;spacing=4;treeFolding=1;" parent="Gr0Zq-AI6Quabplr0KPa-179" vertex="1">
          <mxGeometry x="471" y="158" height="1" as="geometry" />
        </mxCell>
        <mxCell id="Gr0Zq-AI6Quabplr0KPa-182" value="" style="edgeStyle=entityRelationEdgeStyle;startArrow=none;endArrow=none;segment=10;curved=1;strokeWidth=2;strokeColor=#660000;rounded=0;fontSize=12;startSize=8;endSize=8;" parent="Gr0Zq-AI6Quabplr0KPa-179" source="Gr0Zq-AI6Quabplr0KPa-180" target="Gr0Zq-AI6Quabplr0KPa-181" edge="1">
          <mxGeometry relative="1" as="geometry">
            <mxPoint x="163" y="175.5" as="sourcePoint" />
            <mxPoint x="225" y="198" as="targetPoint" />
          </mxGeometry>
        </mxCell>
        <mxCell id="Gr0Zq-AI6Quabplr0KPa-183" value="Planning" style="text;html=1;resizable=0;points=[];align=center;verticalAlign=middle;labelBackgroundColor=none;rotation=-30;fontFamily=Comic Sans MS;" parent="Gr0Zq-AI6Quabplr0KPa-182" vertex="1" connectable="0">
          <mxGeometry x="0.0245" y="2" relative="1" as="geometry">
            <mxPoint x="-18" y="-66" as="offset" />
          </mxGeometry>
        </mxCell>
        <mxCell id="Gr0Zq-AI6Quabplr0KPa-184" value="" style="whiteSpace=wrap;html=1;rounded=1;arcSize=50;align=center;verticalAlign=middle;container=1;recursiveResize=0;strokeWidth=1;autosize=1;spacing=4;treeFolding=1;collapsible=0;" parent="Gr0Zq-AI6Quabplr0KPa-179" vertex="1">
          <mxGeometry x="562" y="100" width="5" height="8" as="geometry" />
        </mxCell>
        <mxCell id="Gr0Zq-AI6Quabplr0KPa-185" value="" style="edgeStyle=entityRelationEdgeStyle;startArrow=none;endArrow=none;segment=10;curved=1;strokeColor=#660000;rounded=0;fontSize=12;startSize=8;endSize=8;" parent="Gr0Zq-AI6Quabplr0KPa-179" source="Gr0Zq-AI6Quabplr0KPa-181" edge="1">
          <mxGeometry relative="1" as="geometry">
            <mxPoint x="194" y="91.5" as="sourcePoint" />
            <mxPoint x="535" y="72" as="targetPoint" />
            <Array as="points">
              <mxPoint x="501" y="119" />
            </Array>
          </mxGeometry>
        </mxCell>
        <mxCell id="Gr0Zq-AI6Quabplr0KPa-186" value="Projects" style="text;html=1;resizable=0;points=[];align=center;verticalAlign=middle;labelBackgroundColor=none;fontFamily=Comic Sans MS;rotation=-30;" parent="Gr0Zq-AI6Quabplr0KPa-185" vertex="1">
          <mxGeometry x="0.2571" relative="1" as="geometry">
            <mxPoint x="3" y="-14" as="offset" />
          </mxGeometry>
        </mxCell>
        <mxCell id="Gr0Zq-AI6Quabplr0KPa-187" value="" style="whiteSpace=wrap;html=1;rounded=1;arcSize=50;align=center;verticalAlign=middle;container=1;recursiveResize=0;strokeWidth=1;autosize=1;spacing=4;treeFolding=1;collapsible=0;" parent="Gr0Zq-AI6Quabplr0KPa-179" vertex="1">
          <mxGeometry x="567" y="159" height="1" as="geometry" />
        </mxCell>
        <mxCell id="Gr0Zq-AI6Quabplr0KPa-188" value="" style="edgeStyle=entityRelationEdgeStyle;startArrow=none;endArrow=none;segment=10;curved=1;strokeColor=#660000;rounded=0;fontSize=12;startSize=8;endSize=8;" parent="Gr0Zq-AI6Quabplr0KPa-179" source="Gr0Zq-AI6Quabplr0KPa-181" target="Gr0Zq-AI6Quabplr0KPa-187" edge="1">
          <mxGeometry relative="1" as="geometry">
            <mxPoint x="189" y="81.5" as="sourcePoint" />
            <mxPoint x="251" y="104" as="targetPoint" />
          </mxGeometry>
        </mxCell>
        <mxCell id="Gr0Zq-AI6Quabplr0KPa-189" value="Goals" style="text;html=1;resizable=0;points=[];align=center;verticalAlign=middle;labelBackgroundColor=none;fontFamily=Comic Sans MS;rotation=0;" parent="Gr0Zq-AI6Quabplr0KPa-188" vertex="1" connectable="0">
          <mxGeometry x="-0.1124" y="-1" relative="1" as="geometry">
            <mxPoint x="24" y="-12" as="offset" />
          </mxGeometry>
        </mxCell>
        <mxCell id="Gr0Zq-AI6Quabplr0KPa-190" value="" style="whiteSpace=wrap;html=1;rounded=1;arcSize=50;align=center;verticalAlign=middle;container=1;recursiveResize=0;strokeWidth=1;autosize=1;spacing=4;treeFolding=1;collapsible=0;" parent="Gr0Zq-AI6Quabplr0KPa-179" vertex="1">
          <mxGeometry x="567" y="215" height="1" as="geometry" />
        </mxCell>
        <mxCell id="Gr0Zq-AI6Quabplr0KPa-191" value="" style="edgeStyle=entityRelationEdgeStyle;startArrow=none;endArrow=none;segment=10;curved=1;strokeColor=#660000;rounded=0;fontSize=12;startSize=8;endSize=8;" parent="Gr0Zq-AI6Quabplr0KPa-179" source="Gr0Zq-AI6Quabplr0KPa-181" target="Gr0Zq-AI6Quabplr0KPa-190" edge="1">
          <mxGeometry relative="1" as="geometry">
            <mxPoint x="251" y="158.5" as="sourcePoint" />
            <mxPoint x="251" y="104" as="targetPoint" />
          </mxGeometry>
        </mxCell>
        <mxCell id="Gr0Zq-AI6Quabplr0KPa-192" value="Strategies" style="text;html=1;resizable=0;points=[];align=center;verticalAlign=middle;labelBackgroundColor=none;fontFamily=Comic Sans MS;rotation=30;" parent="Gr0Zq-AI6Quabplr0KPa-191" vertex="1" connectable="0">
          <mxGeometry x="-0.1124" y="-1" relative="1" as="geometry">
            <mxPoint x="28" y="1" as="offset" />
          </mxGeometry>
        </mxCell>
        <mxCell id="Gr0Zq-AI6Quabplr0KPa-193" value="" style="whiteSpace=wrap;html=1;rounded=1;arcSize=50;align=center;verticalAlign=middle;container=1;recursiveResize=0;strokeWidth=1;autosize=1;spacing=4;treeFolding=1;" parent="Gr0Zq-AI6Quabplr0KPa-179" vertex="1">
          <mxGeometry x="474" y="332" height="1" as="geometry" />
        </mxCell>
        <mxCell id="Gr0Zq-AI6Quabplr0KPa-194" value="" style="edgeStyle=entityRelationEdgeStyle;startArrow=none;endArrow=none;segment=10;curved=1;strokeWidth=2;strokeColor=#000099;rounded=0;fontSize=12;startSize=8;endSize=8;" parent="Gr0Zq-AI6Quabplr0KPa-179" source="Gr0Zq-AI6Quabplr0KPa-180" target="Gr0Zq-AI6Quabplr0KPa-193" edge="1">
          <mxGeometry relative="1" as="geometry">
            <mxPoint x="161" y="198.5" as="sourcePoint" />
            <mxPoint x="265" y="268.5" as="targetPoint" />
          </mxGeometry>
        </mxCell>
        <mxCell id="Gr0Zq-AI6Quabplr0KPa-195" value="Creativity" style="text;html=1;resizable=0;points=[];align=center;verticalAlign=middle;labelBackgroundColor=none;rotation=60;fontFamily=Comic Sans MS;" parent="Gr0Zq-AI6Quabplr0KPa-194" vertex="1" connectable="0">
          <mxGeometry x="0.0245" y="2" relative="1" as="geometry">
            <mxPoint x="13" y="6" as="offset" />
          </mxGeometry>
        </mxCell>
        <mxCell id="Gr0Zq-AI6Quabplr0KPa-196" value="" style="whiteSpace=wrap;html=1;rounded=1;arcSize=50;align=center;verticalAlign=middle;container=1;recursiveResize=0;strokeWidth=1;autosize=1;spacing=4;treeFolding=1;collapsible=0;" parent="Gr0Zq-AI6Quabplr0KPa-179" vertex="1">
          <mxGeometry x="572" y="292" width="5" as="geometry" />
        </mxCell>
        <mxCell id="Gr0Zq-AI6Quabplr0KPa-197" value="" style="edgeStyle=entityRelationEdgeStyle;startArrow=none;endArrow=none;segment=10;curved=1;strokeColor=#000099;rounded=0;fontSize=12;startSize=8;endSize=8;" parent="Gr0Zq-AI6Quabplr0KPa-179" source="Gr0Zq-AI6Quabplr0KPa-193" target="Gr0Zq-AI6Quabplr0KPa-196" edge="1">
          <mxGeometry relative="1" as="geometry">
            <mxPoint x="197" y="265.5" as="sourcePoint" />
            <mxPoint x="259" y="288" as="targetPoint" />
          </mxGeometry>
        </mxCell>
        <mxCell id="Gr0Zq-AI6Quabplr0KPa-198" value="Ideas" style="text;html=1;resizable=0;points=[];align=center;verticalAlign=middle;labelBackgroundColor=none;fontFamily=Comic Sans MS;rotation=-30;" parent="Gr0Zq-AI6Quabplr0KPa-197" vertex="1" connectable="0">
          <mxGeometry x="0.2571" relative="1" as="geometry">
            <mxPoint x="3" y="-14" as="offset" />
          </mxGeometry>
        </mxCell>
        <mxCell id="Gr0Zq-AI6Quabplr0KPa-199" value="" style="whiteSpace=wrap;html=1;rounded=1;arcSize=50;align=center;verticalAlign=middle;container=1;recursiveResize=0;strokeWidth=1;autosize=1;spacing=4;treeFolding=1;collapsible=0;" parent="Gr0Zq-AI6Quabplr0KPa-179" vertex="1">
          <mxGeometry x="594" y="342" height="1" as="geometry" />
        </mxCell>
        <mxCell id="Gr0Zq-AI6Quabplr0KPa-200" value="" style="edgeStyle=entityRelationEdgeStyle;startArrow=none;endArrow=none;segment=10;curved=1;strokeColor=#000099;rounded=0;fontSize=12;startSize=8;endSize=8;" parent="Gr0Zq-AI6Quabplr0KPa-179" source="Gr0Zq-AI6Quabplr0KPa-193" target="Gr0Zq-AI6Quabplr0KPa-199" edge="1">
          <mxGeometry relative="1" as="geometry">
            <mxPoint x="192" y="255.5" as="sourcePoint" />
            <mxPoint x="254" y="278" as="targetPoint" />
          </mxGeometry>
        </mxCell>
        <mxCell id="Gr0Zq-AI6Quabplr0KPa-201" value="Innovation" style="text;html=1;resizable=0;points=[];align=center;verticalAlign=middle;labelBackgroundColor=none;fontFamily=Comic Sans MS;rotation=0;" parent="Gr0Zq-AI6Quabplr0KPa-200" vertex="1" connectable="0">
          <mxGeometry x="-0.1124" y="-1" relative="1" as="geometry">
            <mxPoint x="24" y="-12" as="offset" />
          </mxGeometry>
        </mxCell>
        <mxCell id="Gr0Zq-AI6Quabplr0KPa-202" value="" style="whiteSpace=wrap;html=1;rounded=1;arcSize=50;align=center;verticalAlign=middle;container=1;recursiveResize=0;strokeWidth=1;autosize=1;spacing=4;treeFolding=1;collapsible=0;" parent="Gr0Zq-AI6Quabplr0KPa-179" vertex="1">
          <mxGeometry x="594" y="402" height="1" as="geometry" />
        </mxCell>
        <mxCell id="Gr0Zq-AI6Quabplr0KPa-203" value="" style="edgeStyle=entityRelationEdgeStyle;startArrow=none;endArrow=none;segment=10;curved=1;strokeColor=#000099;rounded=0;fontSize=12;startSize=8;endSize=8;" parent="Gr0Zq-AI6Quabplr0KPa-179" source="Gr0Zq-AI6Quabplr0KPa-193" target="Gr0Zq-AI6Quabplr0KPa-202" edge="1">
          <mxGeometry relative="1" as="geometry">
            <mxPoint x="254" y="332.5" as="sourcePoint" />
            <mxPoint x="254" y="278" as="targetPoint" />
          </mxGeometry>
        </mxCell>
        <mxCell id="Gr0Zq-AI6Quabplr0KPa-204" value="Thoughts" style="text;html=1;resizable=0;points=[];align=center;verticalAlign=middle;labelBackgroundColor=none;fontFamily=Comic Sans MS;rotation=30;" parent="Gr0Zq-AI6Quabplr0KPa-203" vertex="1" connectable="0">
          <mxGeometry x="-0.1124" y="-1" relative="1" as="geometry">
            <mxPoint x="28" y="1" as="offset" />
          </mxGeometry>
        </mxCell>
        <mxCell id="Gr0Zq-AI6Quabplr0KPa-205" value="" style="shape=image;html=1;verticalAlign=top;verticalLabelPosition=bottom;labelBackgroundColor=#ffffff;imageAspect=0;aspect=fixed;image=https://cdn2.iconfinder.com/data/icons/bitsies/128/Lightbulb-128.png;strokeColor=#000000;fillColor=none;fontFamily=Comic Sans MS;rotation=-30;" parent="Gr0Zq-AI6Quabplr0KPa-179" vertex="1">
          <mxGeometry x="553" y="267" width="24" height="24" as="geometry" />
        </mxCell>
        <mxCell id="Gr0Zq-AI6Quabplr0KPa-206" style="edgeStyle=entityRelationEdgeStyle;jumpStyle=arc;html=1;endArrow=classicThin;endFill=1;jettySize=auto;orthogonalLoop=1;strokeColor=none;strokeWidth=2;fontFamily=Comic Sans MS;rounded=0;fontSize=12;startSize=8;endSize=8;curved=1;" parent="Gr0Zq-AI6Quabplr0KPa-179" source="Gr0Zq-AI6Quabplr0KPa-196" target="Gr0Zq-AI6Quabplr0KPa-205" edge="1">
          <mxGeometry relative="1" as="geometry" />
        </mxCell>
        <mxCell id="Gr0Zq-AI6Quabplr0KPa-207" value="" style="shape=image;html=1;verticalAlign=top;verticalLabelPosition=bottom;labelBackgroundColor=#ffffff;imageAspect=0;aspect=fixed;image=https://cdn2.iconfinder.com/data/icons/ios-7-icons/50/finish_flag-128.png;strokeColor=#000000;fillColor=none;fontFamily=Comic Sans MS;" parent="Gr0Zq-AI6Quabplr0KPa-179" vertex="1">
          <mxGeometry x="553" y="138" width="18" height="18" as="geometry" />
        </mxCell>
        <mxCell id="Gr0Zq-AI6Quabplr0KPa-208" style="edgeStyle=entityRelationEdgeStyle;jumpStyle=arc;html=1;endArrow=classicThin;endFill=1;jettySize=auto;orthogonalLoop=1;strokeColor=none;strokeWidth=2;fontFamily=Comic Sans MS;rounded=0;fontSize=12;startSize=8;endSize=8;curved=1;" parent="Gr0Zq-AI6Quabplr0KPa-179" source="Gr0Zq-AI6Quabplr0KPa-187" target="Gr0Zq-AI6Quabplr0KPa-207" edge="1">
          <mxGeometry relative="1" as="geometry" />
        </mxCell>
        <mxCell id="Gr0Zq-AI6Quabplr0KPa-209" value="" style="whiteSpace=wrap;html=1;rounded=1;arcSize=50;align=center;verticalAlign=middle;container=1;recursiveResize=0;strokeWidth=1;autosize=1;spacing=4;treeFolding=1;" parent="Gr0Zq-AI6Quabplr0KPa-179" vertex="1">
          <mxGeometry x="193" y="120" height="1" as="geometry" />
        </mxCell>
        <mxCell id="Gr0Zq-AI6Quabplr0KPa-210" value="" style="edgeStyle=entityRelationEdgeStyle;startArrow=none;endArrow=none;segment=10;curved=1;strokeWidth=2;strokeColor=#336600;rounded=0;fontSize=12;startSize=8;endSize=8;" parent="Gr0Zq-AI6Quabplr0KPa-179" source="Gr0Zq-AI6Quabplr0KPa-180" target="Gr0Zq-AI6Quabplr0KPa-209" edge="1">
          <mxGeometry relative="1" as="geometry">
            <mxPoint x="161" y="198.5" as="sourcePoint" />
            <mxPoint x="251" y="158.5" as="targetPoint" />
          </mxGeometry>
        </mxCell>
        <mxCell id="Gr0Zq-AI6Quabplr0KPa-211" value="Benefits" style="text;html=1;resizable=0;points=[];align=center;verticalAlign=middle;labelBackgroundColor=none;rotation=50;fontFamily=Comic Sans MS;" parent="Gr0Zq-AI6Quabplr0KPa-210" vertex="1" connectable="0">
          <mxGeometry x="0.0245" y="2" relative="1" as="geometry">
            <mxPoint x="12" y="-7" as="offset" />
          </mxGeometry>
        </mxCell>
        <mxCell id="Gr0Zq-AI6Quabplr0KPa-212" value="" style="whiteSpace=wrap;html=1;rounded=1;arcSize=50;align=center;verticalAlign=middle;container=1;recursiveResize=0;strokeWidth=1;autosize=1;spacing=4;treeFolding=1;collapsible=0;" parent="Gr0Zq-AI6Quabplr0KPa-179" vertex="1">
          <mxGeometry x="75" y="171" height="1" as="geometry" />
        </mxCell>
        <mxCell id="Gr0Zq-AI6Quabplr0KPa-213" value="" style="edgeStyle=entityRelationEdgeStyle;startArrow=none;endArrow=none;segment=10;curved=1;strokeColor=#336600;rounded=0;fontSize=12;startSize=8;endSize=8;" parent="Gr0Zq-AI6Quabplr0KPa-179" source="Gr0Zq-AI6Quabplr0KPa-209" target="Gr0Zq-AI6Quabplr0KPa-212" edge="1">
          <mxGeometry relative="1" as="geometry">
            <mxPoint x="-168" y="167.5" as="sourcePoint" />
            <mxPoint x="-168" y="113" as="targetPoint" />
          </mxGeometry>
        </mxCell>
        <mxCell id="Gr0Zq-AI6Quabplr0KPa-214" value="Simple, fast &amp;amp; fun" style="text;html=1;resizable=0;points=[];align=center;verticalAlign=middle;labelBackgroundColor=none;fontFamily=Comic Sans MS;rotation=-26;fontSize=9;" parent="Gr0Zq-AI6Quabplr0KPa-213" vertex="1" connectable="0">
          <mxGeometry x="-0.1124" y="-1" relative="1" as="geometry">
            <mxPoint x="-27" y="7" as="offset" />
          </mxGeometry>
        </mxCell>
        <mxCell id="Gr0Zq-AI6Quabplr0KPa-215" value="" style="whiteSpace=wrap;html=1;rounded=1;arcSize=50;align=center;verticalAlign=middle;container=1;recursiveResize=0;strokeWidth=1;autosize=1;spacing=4;treeFolding=1;collapsible=0;" parent="Gr0Zq-AI6Quabplr0KPa-179" vertex="1">
          <mxGeometry x="82" y="125" height="1" as="geometry" />
        </mxCell>
        <mxCell id="Gr0Zq-AI6Quabplr0KPa-216" value="" style="edgeStyle=entityRelationEdgeStyle;startArrow=none;endArrow=none;segment=10;curved=1;strokeColor=#336600;rounded=0;fontSize=12;startSize=8;endSize=8;" parent="Gr0Zq-AI6Quabplr0KPa-179" source="Gr0Zq-AI6Quabplr0KPa-209" target="Gr0Zq-AI6Quabplr0KPa-215" edge="1">
          <mxGeometry relative="1" as="geometry">
            <mxPoint x="-230" y="90.5" as="sourcePoint" />
            <mxPoint x="-168" y="113" as="targetPoint" />
          </mxGeometry>
        </mxCell>
        <mxCell id="Gr0Zq-AI6Quabplr0KPa-217" value="Easy to memorize" style="text;html=1;resizable=0;points=[];align=center;verticalAlign=middle;labelBackgroundColor=none;fontFamily=Comic Sans MS;rotation=-1;fontSize=10;" parent="Gr0Zq-AI6Quabplr0KPa-216" vertex="1" connectable="0">
          <mxGeometry x="-0.1124" y="-1" relative="1" as="geometry">
            <mxPoint x="-18" y="-6" as="offset" />
          </mxGeometry>
        </mxCell>
        <mxCell id="Gr0Zq-AI6Quabplr0KPa-218" value="" style="whiteSpace=wrap;html=1;rounded=1;arcSize=50;align=center;verticalAlign=middle;container=1;recursiveResize=0;strokeWidth=1;autosize=1;spacing=4;treeFolding=1;collapsible=0;" parent="Gr0Zq-AI6Quabplr0KPa-179" vertex="1" collapsed="1">
          <mxGeometry x="89" y="83" width="5" as="geometry" />
        </mxCell>
        <mxCell id="Gr0Zq-AI6Quabplr0KPa-219" value="" style="edgeStyle=entityRelationEdgeStyle;startArrow=none;endArrow=none;segment=10;curved=1;strokeColor=#336600;rounded=0;fontSize=12;startSize=8;endSize=8;" parent="Gr0Zq-AI6Quabplr0KPa-179" source="Gr0Zq-AI6Quabplr0KPa-209" target="Gr0Zq-AI6Quabplr0KPa-218" edge="1">
          <mxGeometry relative="1" as="geometry">
            <mxPoint x="-225" y="100.5" as="sourcePoint" />
            <mxPoint x="-163" y="123" as="targetPoint" />
          </mxGeometry>
        </mxCell>
        <mxCell id="Gr0Zq-AI6Quabplr0KPa-220" value="Overview" style="text;html=1;resizable=0;points=[];align=center;verticalAlign=middle;labelBackgroundColor=none;fontFamily=Comic Sans MS;rotation=20;" parent="Gr0Zq-AI6Quabplr0KPa-219" vertex="1" connectable="0">
          <mxGeometry x="0.2571" relative="1" as="geometry">
            <mxPoint x="-2" y="-13" as="offset" />
          </mxGeometry>
        </mxCell>
        <mxCell id="Gr0Zq-AI6Quabplr0KPa-221" value="" style="shape=image;html=1;verticalAlign=top;verticalLabelPosition=bottom;labelBackgroundColor=#ffffff;imageAspect=0;aspect=fixed;image=https://cdn2.iconfinder.com/data/icons/basicset/tick_64.png;strokeColor=#000099;strokeWidth=2;fillColor=none;fontFamily=Comic Sans MS;fontSize=10;rotation=28;" parent="Gr0Zq-AI6Quabplr0KPa-179" vertex="1">
          <mxGeometry x="157" y="88" width="17" height="17" as="geometry" />
        </mxCell>
        <mxCell id="Gr0Zq-AI6Quabplr0KPa-223" style="jumpStyle=arc;html=1;endArrow=classicThin;endFill=1;jettySize=auto;orthogonalLoop=1;strokeColor=none;strokeWidth=2;fontFamily=Comic Sans MS;fontSize=10;rounded=0;startSize=8;endSize=8;curved=1;" parent="Gr0Zq-AI6Quabplr0KPa-179" source="Gr0Zq-AI6Quabplr0KPa-209" target="Gr0Zq-AI6Quabplr0KPa-221" edge="1">
          <mxGeometry relative="1" as="geometry" />
        </mxCell>
        <mxCell id="Gr0Zq-AI6Quabplr0KPa-224" value="" style="whiteSpace=wrap;html=1;rounded=1;arcSize=50;align=center;verticalAlign=middle;container=1;recursiveResize=0;strokeWidth=1;autosize=1;spacing=4;treeFolding=1;" parent="Gr0Zq-AI6Quabplr0KPa-179" vertex="1">
          <mxGeometry x="162" y="253" height="1" as="geometry" />
        </mxCell>
        <mxCell id="Gr0Zq-AI6Quabplr0KPa-225" value="" style="edgeStyle=entityRelationEdgeStyle;startArrow=none;endArrow=none;segment=10;curved=1;strokeWidth=2;strokeColor=#660000;rounded=0;fontSize=12;startSize=8;endSize=8;" parent="Gr0Zq-AI6Quabplr0KPa-179" source="Gr0Zq-AI6Quabplr0KPa-180" target="Gr0Zq-AI6Quabplr0KPa-224" edge="1">
          <mxGeometry relative="1" as="geometry">
            <mxPoint x="53" y="198.50000000000023" as="sourcePoint" />
            <mxPoint x="-27" y="120.5" as="targetPoint" />
          </mxGeometry>
        </mxCell>
        <mxCell id="Gr0Zq-AI6Quabplr0KPa-226" value="Collaboration" style="text;html=1;resizable=0;points=[];align=center;verticalAlign=middle;labelBackgroundColor=none;rotation=-30;fontFamily=Comic Sans MS;" parent="Gr0Zq-AI6Quabplr0KPa-225" vertex="1" connectable="0">
          <mxGeometry x="0.0245" y="2" relative="1" as="geometry">
            <mxPoint x="-10" y="-13" as="offset" />
          </mxGeometry>
        </mxCell>
        <mxCell id="Gr0Zq-AI6Quabplr0KPa-227" value="" style="whiteSpace=wrap;html=1;rounded=1;arcSize=50;align=center;verticalAlign=middle;container=1;recursiveResize=0;strokeWidth=1;autosize=1;spacing=4;treeFolding=1;collapsible=0;" parent="Gr0Zq-AI6Quabplr0KPa-179" vertex="1">
          <mxGeometry x="44" y="304" height="1" as="geometry" />
        </mxCell>
        <mxCell id="Gr0Zq-AI6Quabplr0KPa-228" value="" style="edgeStyle=entityRelationEdgeStyle;startArrow=none;endArrow=none;segment=10;curved=1;strokeColor=#660000;rounded=0;fontSize=12;startSize=8;endSize=8;" parent="Gr0Zq-AI6Quabplr0KPa-179" source="Gr0Zq-AI6Quabplr0KPa-224" target="Gr0Zq-AI6Quabplr0KPa-227" edge="1">
          <mxGeometry relative="1" as="geometry">
            <mxPoint x="-333" y="345.5" as="sourcePoint" />
            <mxPoint x="-333" y="291" as="targetPoint" />
          </mxGeometry>
        </mxCell>
        <mxCell id="Gr0Zq-AI6Quabplr0KPa-229" value="Colleagues" style="text;html=1;resizable=0;points=[];align=center;verticalAlign=middle;labelBackgroundColor=none;fontFamily=Comic Sans MS;rotation=-26;fontSize=12;collapsible=0;" parent="Gr0Zq-AI6Quabplr0KPa-228" vertex="1" connectable="0">
          <mxGeometry x="-0.1124" y="-1" relative="1" as="geometry">
            <mxPoint x="-34" y="8" as="offset" />
          </mxGeometry>
        </mxCell>
        <mxCell id="Gr0Zq-AI6Quabplr0KPa-230" value="" style="whiteSpace=wrap;html=1;rounded=1;arcSize=50;align=center;verticalAlign=middle;container=1;recursiveResize=0;strokeWidth=1;autosize=1;spacing=4;treeFolding=1;collapsible=0;" parent="Gr0Zq-AI6Quabplr0KPa-179" vertex="1">
          <mxGeometry x="51" y="258" height="1" as="geometry" />
        </mxCell>
        <mxCell id="Gr0Zq-AI6Quabplr0KPa-231" value="" style="edgeStyle=entityRelationEdgeStyle;startArrow=none;endArrow=none;segment=10;curved=1;strokeColor=#660000;rounded=0;fontSize=12;startSize=8;endSize=8;" parent="Gr0Zq-AI6Quabplr0KPa-179" source="Gr0Zq-AI6Quabplr0KPa-224" target="Gr0Zq-AI6Quabplr0KPa-230" edge="1">
          <mxGeometry relative="1" as="geometry">
            <mxPoint x="-395" y="268.5" as="sourcePoint" />
            <mxPoint x="-333" y="291" as="targetPoint" />
          </mxGeometry>
        </mxCell>
        <mxCell id="Gr0Zq-AI6Quabplr0KPa-232" value="Sharing" style="text;html=1;resizable=0;points=[];align=center;verticalAlign=middle;labelBackgroundColor=none;fontFamily=Comic Sans MS;rotation=-1;fontSize=12;collapsible=0;" parent="Gr0Zq-AI6Quabplr0KPa-231" vertex="1" connectable="0">
          <mxGeometry x="-0.1124" y="-1" relative="1" as="geometry">
            <mxPoint x="-37" y="-9" as="offset" />
          </mxGeometry>
        </mxCell>
        <mxCell id="Gr0Zq-AI6Quabplr0KPa-233" value="" style="whiteSpace=wrap;html=1;rounded=1;arcSize=50;align=center;verticalAlign=middle;container=1;recursiveResize=0;strokeWidth=1;autosize=1;spacing=4;treeFolding=1;collapsible=0;" parent="Gr0Zq-AI6Quabplr0KPa-179" vertex="1" collapsed="1">
          <mxGeometry x="58" y="216" width="5" as="geometry" />
        </mxCell>
        <mxCell id="Gr0Zq-AI6Quabplr0KPa-234" value="" style="edgeStyle=entityRelationEdgeStyle;startArrow=none;endArrow=none;segment=10;curved=1;strokeColor=#660000;rounded=0;fontSize=12;startSize=8;endSize=8;" parent="Gr0Zq-AI6Quabplr0KPa-179" source="Gr0Zq-AI6Quabplr0KPa-224" target="Gr0Zq-AI6Quabplr0KPa-233" edge="1">
          <mxGeometry relative="1" as="geometry">
            <mxPoint x="-390" y="278.5" as="sourcePoint" />
            <mxPoint x="-328" y="301" as="targetPoint" />
          </mxGeometry>
        </mxCell>
        <mxCell id="Gr0Zq-AI6Quabplr0KPa-235" value="TEAM WORK" style="text;html=1;resizable=0;points=[];align=center;verticalAlign=middle;labelBackgroundColor=none;fontFamily=Comic Sans MS;rotation=20;collapsible=0;" parent="Gr0Zq-AI6Quabplr0KPa-234" vertex="1" connectable="0">
          <mxGeometry x="0.2571" relative="1" as="geometry">
            <mxPoint x="-2" y="-13" as="offset" />
          </mxGeometry>
        </mxCell>
        <mxCell id="Gr0Zq-AI6Quabplr0KPa-236" value="" style="shape=image;html=1;verticalAlign=top;verticalLabelPosition=bottom;labelBackgroundColor=#ffffff;imageAspect=0;aspect=fixed;image=https://cdn3.iconfinder.com/data/icons/tango-icon-library/48/system-users-128.png;dashed=0;fontFamily=Comic Sans MS;fontSize=12;fontColor=#000000;align=center;strokeColor=#000099;strokeWidth=2;fillColor=#D2D3D3;" parent="Gr0Zq-AI6Quabplr0KPa-179" vertex="1">
          <mxGeometry x="165" y="180" width="39" height="37" as="geometry" />
        </mxCell>
        <mxCell id="Gr0Zq-AI6Quabplr0KPa-237" style="edgeStyle=none;jumpStyle=arc;html=1;entryX=0.5;entryY=1;entryPerimeter=0;endArrow=classicThin;endFill=1;jettySize=auto;orthogonalLoop=1;strokeColor=none;strokeWidth=2;fontFamily=Comic Sans MS;fontSize=12;rounded=0;startSize=8;endSize=8;curved=1;" parent="Gr0Zq-AI6Quabplr0KPa-179" source="Gr0Zq-AI6Quabplr0KPa-224" target="Gr0Zq-AI6Quabplr0KPa-236" edge="1">
          <mxGeometry relative="1" as="geometry" />
        </mxCell>
        <mxCell id="Gr0Zq-AI6Quabplr0KPa-238" value="" style="whiteSpace=wrap;html=1;rounded=1;arcSize=50;align=center;verticalAlign=middle;container=1;recursiveResize=0;strokeWidth=1;autosize=1;spacing=4;treeFolding=1;" parent="Gr0Zq-AI6Quabplr0KPa-179" vertex="1">
          <mxGeometry x="257" y="333" height="1" as="geometry" />
        </mxCell>
        <mxCell id="Gr0Zq-AI6Quabplr0KPa-239" value="" style="startArrow=none;endArrow=none;segment=10;strokeWidth=2;strokeColor=#CCCC00;exitX=0.5;exitY=1;curved=1;rounded=0;fontSize=12;startSize=8;endSize=8;" parent="Gr0Zq-AI6Quabplr0KPa-179" source="Gr0Zq-AI6Quabplr0KPa-180" target="Gr0Zq-AI6Quabplr0KPa-238" edge="1">
          <mxGeometry relative="1" as="geometry">
            <mxPoint x="53" y="198.50000000000023" as="sourcePoint" />
            <mxPoint x="-58" y="253.5" as="targetPoint" />
            <Array as="points">
              <mxPoint x="333" y="272" />
              <mxPoint x="318" y="289" />
              <mxPoint x="276" y="309" />
            </Array>
          </mxGeometry>
        </mxCell>
        <mxCell id="Gr0Zq-AI6Quabplr0KPa-240" value="Productivity" style="text;html=1;resizable=0;points=[];align=center;verticalAlign=middle;labelBackgroundColor=none;rotation=-30;fontFamily=Comic Sans MS;" parent="Gr0Zq-AI6Quabplr0KPa-239" vertex="1" connectable="0">
          <mxGeometry x="0.0245" y="2" relative="1" as="geometry">
            <mxPoint x="-24" y="-2" as="offset" />
          </mxGeometry>
        </mxCell>
        <mxCell id="Gr0Zq-AI6Quabplr0KPa-241" value="" style="whiteSpace=wrap;html=1;rounded=1;arcSize=50;align=center;verticalAlign=middle;container=1;recursiveResize=0;strokeWidth=1;autosize=1;spacing=4;treeFolding=1;collapsible=0;" parent="Gr0Zq-AI6Quabplr0KPa-179" vertex="1">
          <mxGeometry x="148" y="375" height="1" as="geometry" />
        </mxCell>
        <mxCell id="Gr0Zq-AI6Quabplr0KPa-242" value="" style="startArrow=none;endArrow=none;segment=10;strokeColor=#CCCC00;curved=1;rounded=0;fontSize=12;startSize=8;endSize=8;" parent="Gr0Zq-AI6Quabplr0KPa-179" source="Gr0Zq-AI6Quabplr0KPa-238" target="Gr0Zq-AI6Quabplr0KPa-241" edge="1">
          <mxGeometry relative="1" as="geometry">
            <mxPoint x="-346" y="466.5" as="sourcePoint" />
            <mxPoint x="-52" y="381" as="targetPoint" />
            <Array as="points">
              <mxPoint x="222" y="366" />
            </Array>
          </mxGeometry>
        </mxCell>
        <mxCell id="Gr0Zq-AI6Quabplr0KPa-243" value="INTUITIVE" style="text;html=1;resizable=0;points=[];align=center;verticalAlign=middle;labelBackgroundColor=none;fontFamily=Comic Sans MS;rotation=-15;fontSize=12;collapsible=0;" parent="Gr0Zq-AI6Quabplr0KPa-242" vertex="1" connectable="0">
          <mxGeometry x="-0.1124" y="-1" relative="1" as="geometry">
            <mxPoint x="-30" y="-10" as="offset" />
          </mxGeometry>
        </mxCell>
        <mxCell id="Gr0Zq-AI6Quabplr0KPa-244" value="" style="whiteSpace=wrap;html=1;rounded=1;arcSize=50;align=center;verticalAlign=middle;container=1;recursiveResize=0;strokeWidth=1;autosize=1;spacing=4;treeFolding=1;collapsible=0;" parent="Gr0Zq-AI6Quabplr0KPa-179" vertex="1">
          <mxGeometry x="140" y="307" height="1" as="geometry" />
        </mxCell>
        <mxCell id="Gr0Zq-AI6Quabplr0KPa-245" value="" style="edgeStyle=entityRelationEdgeStyle;startArrow=none;endArrow=none;segment=10;curved=1;strokeColor=#CCCC00;rounded=0;fontSize=12;startSize=8;endSize=8;" parent="Gr0Zq-AI6Quabplr0KPa-179" source="Gr0Zq-AI6Quabplr0KPa-238" target="Gr0Zq-AI6Quabplr0KPa-244" edge="1">
          <mxGeometry relative="1" as="geometry">
            <mxPoint x="-408" y="389.5" as="sourcePoint" />
            <mxPoint x="-346" y="412" as="targetPoint" />
          </mxGeometry>
        </mxCell>
        <mxCell id="Gr0Zq-AI6Quabplr0KPa-246" value="MORE EFFICIENT" style="text;html=1;resizable=0;points=[];align=center;verticalAlign=middle;labelBackgroundColor=none;fontFamily=Comic Sans MS;rotation=15;fontSize=12;" parent="Gr0Zq-AI6Quabplr0KPa-245" vertex="1" connectable="0">
          <mxGeometry x="-0.1124" y="-1" relative="1" as="geometry">
            <mxPoint x="-6" y="-13" as="offset" />
          </mxGeometry>
        </mxCell>
        <mxCell id="Gr0Zq-AI6Quabplr0KPa-247" value="" style="shape=image;html=1;verticalAlign=top;verticalLabelPosition=bottom;labelBackgroundColor=#ffffff;imageAspect=0;aspect=fixed;image=https://cdn3.iconfinder.com/data/icons/beos/BeOS_flash.png;dashed=0;fontFamily=Comic Sans MS;fontSize=12;fontColor=#000000;align=center;strokeColor=#000099;strokeWidth=2;fillColor=#D2D3D3;rotation=-25;" parent="Gr0Zq-AI6Quabplr0KPa-179" vertex="1">
          <mxGeometry x="302" y="305" width="39" height="37" as="geometry" />
        </mxCell>
        <mxCell id="Gr0Zq-AI6Quabplr0KPa-248" style="edgeStyle=none;jumpStyle=arc;html=1;entryX=0.5;entryY=1;entryPerimeter=0;endArrow=classicThin;endFill=1;jettySize=auto;orthogonalLoop=1;strokeColor=none;strokeWidth=2;fontFamily=Comic Sans MS;fontSize=12;rounded=0;startSize=8;endSize=8;curved=1;" parent="Gr0Zq-AI6Quabplr0KPa-179" source="Gr0Zq-AI6Quabplr0KPa-238" target="Gr0Zq-AI6Quabplr0KPa-247" edge="1">
          <mxGeometry relative="1" as="geometry" />
        </mxCell>
        <mxCell id="Gr0Zq-AI6Quabplr0KPa-222" value="" style="endArrow=classic;html=1;curved=1;sourcePerimeterSpacing=10;strokeColor=#999900;targetPerimeterSpacing=7;rounded=0;fontSize=12;startSize=8;endSize=8;" parent="1" edge="1">
          <mxGeometry width="50" height="50" relative="1" as="geometry">
            <mxPoint x="527.8041747464257" y="624.6565070382774" as="sourcePoint" />
            <mxPoint x="189.9972998274674" y="607.0306426942118" as="targetPoint" />
            <Array as="points">
              <mxPoint x="345.40999999999997" y="530" />
            </Array>
          </mxGeometry>
        </mxCell>
        <mxCell id="-dcGEVKdCbEMzyg4yERX-1" value="&lt;font style=&quot;font-size: 14px;&quot;&gt;&lt;b&gt;/&lt;/b&gt;&lt;/font&gt;" style="text;html=1;align=center;verticalAlign=middle;whiteSpace=wrap;rounded=0;" vertex="1" parent="1">
          <mxGeometry x="918" y="380" width="60" height="30" as="geometry" />
        </mxCell>
        <UserObject label="https://learning.lpi.org/es/learning-materials/101-500/104/104.7/104.7_01/" link="https://learning.lpi.org/es/learning-materials/101-500/104/104.7/104.7_01/" id="-dcGEVKdCbEMzyg4yERX-3">
          <mxCell style="text;whiteSpace=wrap;" vertex="1" parent="1">
            <mxGeometry x="785" y="841.0033333333333" width="418" height="36" as="geometry" />
          </mxCell>
        </UserObject>
        <mxCell id="-dcGEVKdCbEMzyg4yERX-40" style="edgeStyle=orthogonalEdgeStyle;rounded=0;orthogonalLoop=1;jettySize=auto;html=1;endArrow=none;endFill=0;" edge="1" parent="1" target="-dcGEVKdCbEMzyg4yERX-1">
          <mxGeometry relative="1" as="geometry">
            <mxPoint x="948" y="93" as="sourcePoint" />
            <Array as="points">
              <mxPoint x="948" y="221" />
              <mxPoint x="948" y="221" />
            </Array>
          </mxGeometry>
        </mxCell>
        <mxCell id="-dcGEVKdCbEMzyg4yERX-39" value="Este es el directorio raÃ­z, el directorio mÃ¡s alto de la jerarquÃ­a. &lt;br style=&quot;font-size: 14px;&quot;&gt;Todos los demÃ¡s directorios se encuentran dentro de Ã©l. Un sistema de archivos a menudo se compara con un âÃ¡rbolâ, por lo que este serÃ­a el âtroncoâ al que estÃ¡n conectadas todas las ramas." style="text;strokeColor=none;align=left;fillColor=none;html=1;verticalAlign=middle;whiteSpace=wrap;rounded=0;fontSize=14;fontStyle=1" vertex="1" parent="1">
          <mxGeometry x="940" y="27" width="591" height="56" as="geometry" />
        </mxCell>
        <mxCell id="-dcGEVKdCbEMzyg4yERX-2" value="&lt;font style=&quot;font-size: 14px;&quot;&gt;&lt;b&gt;/bin&lt;/b&gt;&lt;/font&gt;" style="text;html=1;align=left;verticalAlign=middle;whiteSpace=wrap;rounded=0;" vertex="1" parent="1">
          <mxGeometry x="1034" y="118" width="60" height="30" as="geometry" />
        </mxCell>
        <mxCell id="-dcGEVKdCbEMzyg4yERX-4" value="&lt;font style=&quot;font-size: 14px;&quot;&gt;&lt;b&gt;/home&lt;/b&gt;&lt;/font&gt;" style="text;html=1;align=left;verticalAlign=middle;whiteSpace=wrap;rounded=0;" vertex="1" parent="1">
          <mxGeometry x="1034" y="249" width="60" height="30" as="geometry" />
        </mxCell>
        <mxCell id="-dcGEVKdCbEMzyg4yERX-5" value="&lt;font style=&quot;font-size: 14px;&quot;&gt;&lt;b&gt;/dev&lt;/b&gt;&lt;/font&gt;" style="text;html=1;align=left;verticalAlign=middle;whiteSpace=wrap;rounded=0;" vertex="1" parent="1">
          <mxGeometry x="1034" y="184" width="60" height="30" as="geometry" />
        </mxCell>
        <mxCell id="-dcGEVKdCbEMzyg4yERX-6" value="&lt;font style=&quot;font-size: 14px;&quot;&gt;&lt;b&gt;/etc&lt;/b&gt;&lt;/font&gt;" style="text;html=1;align=left;verticalAlign=middle;whiteSpace=wrap;rounded=0;" vertex="1" parent="1">
          <mxGeometry x="1034" y="216" width="60" height="30" as="geometry" />
        </mxCell>
        <mxCell id="-dcGEVKdCbEMzyg4yERX-7" value="&lt;font style=&quot;font-size: 14px;&quot;&gt;&lt;b&gt;/boot&lt;/b&gt;&lt;/font&gt;" style="text;html=1;align=left;verticalAlign=middle;whiteSpace=wrap;rounded=0;" vertex="1" parent="1">
          <mxGeometry x="1034" y="151" width="60" height="30" as="geometry" />
        </mxCell>
        <mxCell id="-dcGEVKdCbEMzyg4yERX-8" value="&lt;font style=&quot;font-size: 14px;&quot;&gt;&lt;b&gt;/lib&lt;/b&gt;&lt;/font&gt;" style="text;html=1;align=left;verticalAlign=middle;whiteSpace=wrap;rounded=0;" vertex="1" parent="1">
          <mxGeometry x="1034" y="282" width="60" height="30" as="geometry" />
        </mxCell>
        <mxCell id="-dcGEVKdCbEMzyg4yERX-9" value="&lt;font style=&quot;font-size: 14px;&quot;&gt;&lt;b&gt;/media&lt;/b&gt;&lt;/font&gt;" style="text;html=1;align=left;verticalAlign=middle;whiteSpace=wrap;rounded=0;" vertex="1" parent="1">
          <mxGeometry x="1034" y="315" width="60" height="30" as="geometry" />
        </mxCell>
        <mxCell id="-dcGEVKdCbEMzyg4yERX-10" value="&lt;font style=&quot;font-size: 14px;&quot;&gt;&lt;b&gt;/mnt&lt;/b&gt;&lt;/font&gt;" style="text;html=1;align=left;verticalAlign=middle;whiteSpace=wrap;rounded=0;" vertex="1" parent="1">
          <mxGeometry x="1034" y="347" width="60" height="30" as="geometry" />
        </mxCell>
        <mxCell id="-dcGEVKdCbEMzyg4yERX-11" value="&lt;font style=&quot;font-size: 14px;&quot;&gt;&lt;b&gt;/opt&lt;/b&gt;&lt;/font&gt;" style="text;html=1;align=left;verticalAlign=middle;whiteSpace=wrap;rounded=0;" vertex="1" parent="1">
          <mxGeometry x="1034" y="380" width="60" height="30" as="geometry" />
        </mxCell>
        <mxCell id="-dcGEVKdCbEMzyg4yERX-12" value="&lt;font style=&quot;font-size: 14px;&quot;&gt;&lt;b&gt;/root&lt;/b&gt;&lt;/font&gt;" style="text;html=1;align=left;verticalAlign=middle;whiteSpace=wrap;rounded=0;" vertex="1" parent="1">
          <mxGeometry x="1034" y="413" width="60" height="30" as="geometry" />
        </mxCell>
        <mxCell id="-dcGEVKdCbEMzyg4yERX-13" value="&lt;span style=&quot;font-size: 14px;&quot;&gt;&lt;b&gt;/run&lt;/b&gt;&lt;/span&gt;" style="text;html=1;align=left;verticalAlign=middle;whiteSpace=wrap;rounded=0;" vertex="1" parent="1">
          <mxGeometry x="1034" y="446" width="60" height="30" as="geometry" />
        </mxCell>
        <mxCell id="-dcGEVKdCbEMzyg4yERX-14" value="&lt;font style=&quot;font-size: 14px;&quot;&gt;&lt;b&gt;/sbin&lt;/b&gt;&lt;/font&gt;" style="text;html=1;align=left;verticalAlign=middle;whiteSpace=wrap;rounded=0;" vertex="1" parent="1">
          <mxGeometry x="1034" y="478" width="60" height="30" as="geometry" />
        </mxCell>
        <mxCell id="-dcGEVKdCbEMzyg4yERX-15" value="&lt;font style=&quot;font-size: 14px;&quot;&gt;&lt;b&gt;/srv&lt;/b&gt;&lt;/font&gt;" style="text;html=1;align=left;verticalAlign=middle;whiteSpace=wrap;rounded=0;" vertex="1" parent="1">
          <mxGeometry x="1034" y="511" width="60" height="30" as="geometry" />
        </mxCell>
        <mxCell id="-dcGEVKdCbEMzyg4yERX-16" value="&lt;font style=&quot;font-size: 14px;&quot;&gt;&lt;b&gt;/tmp&lt;/b&gt;&lt;/font&gt;" style="text;html=1;align=left;verticalAlign=middle;whiteSpace=wrap;rounded=0;" vertex="1" parent="1">
          <mxGeometry x="1034" y="544" width="60" height="30" as="geometry" />
        </mxCell>
        <mxCell id="-dcGEVKdCbEMzyg4yERX-17" value="&lt;span style=&quot;font-size: 14px;&quot;&gt;&lt;b&gt;/usr&lt;/b&gt;&lt;/span&gt;" style="text;html=1;align=left;verticalAlign=middle;whiteSpace=wrap;rounded=0;" vertex="1" parent="1">
          <mxGeometry x="1034" y="577" width="60" height="30" as="geometry" />
        </mxCell>
        <mxCell id="-dcGEVKdCbEMzyg4yERX-18" value="&lt;font style=&quot;font-size: 14px;&quot;&gt;&lt;b&gt;/proc&lt;/b&gt;&lt;/font&gt;" style="text;html=1;align=left;verticalAlign=middle;whiteSpace=wrap;rounded=0;" vertex="1" parent="1">
          <mxGeometry x="1034" y="609" width="60" height="30" as="geometry" />
        </mxCell>
        <mxCell id="-dcGEVKdCbEMzyg4yERX-19" value="&lt;font style=&quot;font-size: 14px;&quot;&gt;&lt;b&gt;/var&lt;/b&gt;&lt;/font&gt;" style="text;html=1;align=left;verticalAlign=middle;whiteSpace=wrap;rounded=0;" vertex="1" parent="1">
          <mxGeometry x="1034" y="642" width="60" height="30" as="geometry" />
        </mxCell>
        <mxCell id="-dcGEVKdCbEMzyg4yERX-43" style="edgeStyle=none;rounded=0;orthogonalLoop=1;jettySize=auto;html=1;entryX=0.012;entryY=0.881;entryDx=0;entryDy=0;entryPerimeter=0;endArrow=none;endFill=0;exitX=1;exitY=0.5;exitDx=0;exitDy=0;" edge="1" parent="1" target="-dcGEVKdCbEMzyg4yERX-2">
          <mxGeometry relative="1" as="geometry">
            <mxPoint x="960" y="395" as="sourcePoint" />
          </mxGeometry>
        </mxCell>
        <mxCell id="-dcGEVKdCbEMzyg4yERX-44" style="edgeStyle=none;rounded=0;orthogonalLoop=1;jettySize=auto;html=1;entryX=0;entryY=0;entryDx=0;entryDy=0;endArrow=none;endFill=0;exitX=1;exitY=0.5;exitDx=0;exitDy=0;" edge="1" parent="1" target="-dcGEVKdCbEMzyg4yERX-15">
          <mxGeometry relative="1" as="geometry">
            <mxPoint x="960" y="395" as="sourcePoint" />
            <mxPoint x="1045" y="154" as="targetPoint" />
          </mxGeometry>
        </mxCell>
        <mxCell id="-dcGEVKdCbEMzyg4yERX-45" style="edgeStyle=none;rounded=0;orthogonalLoop=1;jettySize=auto;html=1;entryX=0;entryY=1;entryDx=0;entryDy=0;endArrow=none;endFill=0;" edge="1" parent="1" target="-dcGEVKdCbEMzyg4yERX-7">
          <mxGeometry relative="1" as="geometry">
            <mxPoint x="960" y="395" as="sourcePoint" />
            <mxPoint x="1045" y="154" as="targetPoint" />
          </mxGeometry>
        </mxCell>
        <mxCell id="-dcGEVKdCbEMzyg4yERX-46" style="edgeStyle=none;rounded=0;orthogonalLoop=1;jettySize=auto;html=1;entryX=0;entryY=0.25;entryDx=0;entryDy=0;endArrow=none;endFill=0;" edge="1" parent="1" target="-dcGEVKdCbEMzyg4yERX-16">
          <mxGeometry relative="1" as="geometry">
            <mxPoint x="961" y="395" as="sourcePoint" />
            <mxPoint x="1044" y="191" as="targetPoint" />
          </mxGeometry>
        </mxCell>
        <mxCell id="-dcGEVKdCbEMzyg4yERX-47" style="edgeStyle=none;rounded=0;orthogonalLoop=1;jettySize=auto;html=1;entryX=0;entryY=0.5;entryDx=0;entryDy=0;endArrow=none;endFill=0;" edge="1" parent="1" target="-dcGEVKdCbEMzyg4yERX-11">
          <mxGeometry relative="1" as="geometry">
            <mxPoint x="960" y="396" as="sourcePoint" />
            <mxPoint x="1044" y="191" as="targetPoint" />
          </mxGeometry>
        </mxCell>
        <mxCell id="-dcGEVKdCbEMzyg4yERX-48" style="edgeStyle=none;rounded=0;orthogonalLoop=1;jettySize=auto;html=1;entryX=0;entryY=1;entryDx=0;entryDy=0;endArrow=none;endFill=0;" edge="1" parent="1" target="-dcGEVKdCbEMzyg4yERX-6">
          <mxGeometry relative="1" as="geometry">
            <mxPoint x="961" y="395" as="sourcePoint" />
            <mxPoint x="1044" y="191" as="targetPoint" />
          </mxGeometry>
        </mxCell>
        <mxCell id="-dcGEVKdCbEMzyg4yERX-49" style="edgeStyle=none;rounded=0;orthogonalLoop=1;jettySize=auto;html=1;entryX=0;entryY=1;entryDx=0;entryDy=0;endArrow=none;endFill=0;" edge="1" parent="1" target="-dcGEVKdCbEMzyg4yERX-5">
          <mxGeometry relative="1" as="geometry">
            <mxPoint x="960" y="395" as="sourcePoint" />
            <mxPoint x="1044" y="256" as="targetPoint" />
          </mxGeometry>
        </mxCell>
        <mxCell id="-dcGEVKdCbEMzyg4yERX-50" style="edgeStyle=none;rounded=0;orthogonalLoop=1;jettySize=auto;html=1;entryX=0;entryY=1;entryDx=0;entryDy=0;endArrow=none;endFill=0;" edge="1" parent="1" target="-dcGEVKdCbEMzyg4yERX-4">
          <mxGeometry relative="1" as="geometry">
            <mxPoint x="961" y="396" as="sourcePoint" />
            <mxPoint x="1044" y="256" as="targetPoint" />
          </mxGeometry>
        </mxCell>
        <mxCell id="-dcGEVKdCbEMzyg4yERX-51" style="edgeStyle=none;rounded=0;orthogonalLoop=1;jettySize=auto;html=1;entryX=0;entryY=1;entryDx=0;entryDy=0;endArrow=none;endFill=0;" edge="1" parent="1" target="-dcGEVKdCbEMzyg4yERX-8">
          <mxGeometry relative="1" as="geometry">
            <mxPoint x="962" y="395" as="sourcePoint" />
            <mxPoint x="1044" y="289" as="targetPoint" />
          </mxGeometry>
        </mxCell>
        <mxCell id="-dcGEVKdCbEMzyg4yERX-52" style="edgeStyle=none;rounded=0;orthogonalLoop=1;jettySize=auto;html=1;entryX=0;entryY=1;entryDx=0;entryDy=0;endArrow=none;endFill=0;" edge="1" parent="1" target="-dcGEVKdCbEMzyg4yERX-9">
          <mxGeometry relative="1" as="geometry">
            <mxPoint x="961" y="395" as="sourcePoint" />
            <mxPoint x="1044" y="322" as="targetPoint" />
          </mxGeometry>
        </mxCell>
        <mxCell id="-dcGEVKdCbEMzyg4yERX-53" style="edgeStyle=none;rounded=0;orthogonalLoop=1;jettySize=auto;html=1;entryX=0;entryY=1;entryDx=0;entryDy=0;endArrow=none;endFill=0;" edge="1" parent="1" target="-dcGEVKdCbEMzyg4yERX-10">
          <mxGeometry relative="1" as="geometry">
            <mxPoint x="963" y="394" as="sourcePoint" />
            <mxPoint x="1044" y="355" as="targetPoint" />
          </mxGeometry>
        </mxCell>
        <mxCell id="-dcGEVKdCbEMzyg4yERX-54" style="edgeStyle=none;rounded=0;orthogonalLoop=1;jettySize=auto;html=1;entryX=0;entryY=0.25;entryDx=0;entryDy=0;endArrow=none;endFill=0;" edge="1" parent="1" target="-dcGEVKdCbEMzyg4yERX-12">
          <mxGeometry relative="1" as="geometry">
            <mxPoint x="960" y="395" as="sourcePoint" />
            <mxPoint x="1044" y="405" as="targetPoint" />
          </mxGeometry>
        </mxCell>
        <mxCell id="-dcGEVKdCbEMzyg4yERX-55" style="edgeStyle=none;rounded=0;orthogonalLoop=1;jettySize=auto;html=1;entryX=0;entryY=0;entryDx=0;entryDy=0;endArrow=none;endFill=0;" edge="1" parent="1" target="-dcGEVKdCbEMzyg4yERX-13">
          <mxGeometry relative="1" as="geometry">
            <mxPoint x="961" y="396" as="sourcePoint" />
            <mxPoint x="1044" y="431" as="targetPoint" />
          </mxGeometry>
        </mxCell>
        <mxCell id="-dcGEVKdCbEMzyg4yERX-56" style="edgeStyle=none;rounded=0;orthogonalLoop=1;jettySize=auto;html=1;entryX=0;entryY=0;entryDx=0;entryDy=0;endArrow=none;endFill=0;" edge="1" parent="1" target="-dcGEVKdCbEMzyg4yERX-14">
          <mxGeometry relative="1" as="geometry">
            <mxPoint x="959" y="394" as="sourcePoint" />
            <mxPoint x="1044" y="521" as="targetPoint" />
          </mxGeometry>
        </mxCell>
        <mxCell id="-dcGEVKdCbEMzyg4yERX-57" style="edgeStyle=none;rounded=0;orthogonalLoop=1;jettySize=auto;html=1;entryX=0;entryY=0.25;entryDx=0;entryDy=0;endArrow=none;endFill=0;" edge="1" parent="1" target="-dcGEVKdCbEMzyg4yERX-17">
          <mxGeometry relative="1" as="geometry">
            <mxPoint x="961" y="396" as="sourcePoint" />
            <mxPoint x="1044" y="562" as="targetPoint" />
          </mxGeometry>
        </mxCell>
        <mxCell id="-dcGEVKdCbEMzyg4yERX-58" style="edgeStyle=none;rounded=0;orthogonalLoop=1;jettySize=auto;html=1;entryX=0;entryY=0;entryDx=0;entryDy=0;endArrow=none;endFill=0;" edge="1" parent="1" target="-dcGEVKdCbEMzyg4yERX-18">
          <mxGeometry relative="1" as="geometry">
            <mxPoint x="961" y="395" as="sourcePoint" />
            <mxPoint x="1044" y="595" as="targetPoint" />
          </mxGeometry>
        </mxCell>
        <mxCell id="-dcGEVKdCbEMzyg4yERX-59" style="edgeStyle=none;rounded=0;orthogonalLoop=1;jettySize=auto;html=1;entryX=0;entryY=0.093;entryDx=0;entryDy=0;endArrow=none;endFill=0;entryPerimeter=0;" edge="1" parent="1" target="-dcGEVKdCbEMzyg4yERX-19">
          <mxGeometry relative="1" as="geometry">
            <mxPoint x="960" y="394" as="sourcePoint" />
            <mxPoint x="1044" y="619" as="targetPoint" />
          </mxGeometry>
        </mxCell>
        <mxCell id="-dcGEVKdCbEMzyg4yERX-62" value="Binarios esenciales, disponibles para todos los usuarios." style="rounded=1;whiteSpace=wrap;html=1;fillColor=#fff2cc;strokeColor=none;align=left;rotation=0;" vertex="1" parent="1">
          <mxGeometry x="1085.75" y="120" width="634.25" height="32" as="geometry" />
        </mxCell>
        <mxCell id="-dcGEVKdCbEMzyg4yERX-63" value="Archivos necesarios para el proceso de arranque, incluido el disco RAM inicial (initrd) y el propio kernel de Linux." style="rounded=1;whiteSpace=wrap;html=1;fillColor=#E6FFCC;strokeColor=none;align=left;rotation=0;" vertex="1" parent="1">
          <mxGeometry x="1085.75" y="153" width="634.25" height="32" as="geometry" />
        </mxCell>
        <mxCell id="-dcGEVKdCbEMzyg4yERX-64" value="Archivos de dispositivo. Estos pueden ser dispositivos fÃ­sicos conectados al sistema o dispositivos virtuales proporcionados por el kernel." style="rounded=1;whiteSpace=wrap;html=1;fillColor=#fff2cc;strokeColor=none;align=left;" vertex="1" parent="1">
          <mxGeometry x="1085.75" y="186" width="634.25" height="31" as="geometry" />
        </mxCell>
        <mxCell id="-dcGEVKdCbEMzyg4yERX-65" value="Archivos de configuraciÃ³n especÃ­ficos del host. Los programas pueden crear subdirectorios&amp;nbsp;para almacenar mÃºltiples archivos de configuraciÃ³n si es necesario." style="rounded=1;whiteSpace=wrap;html=1;fillColor=#E6FFCC;strokeColor=none;align=left;rotation=0;" vertex="1" parent="1">
          <mxGeometry x="1085.75" y="218" width="634.25" height="32" as="geometry" />
        </mxCell>
        <mxCell id="-dcGEVKdCbEMzyg4yERX-66" value="Salvo el usuario root, cada usuario del sistema tiene un directorio âhomeâ para almacenar &lt;br/&gt;archivos personales y preferencias, y la mayorÃ­a de ellos se encuentran aquÃ­" style="rounded=1;whiteSpace=wrap;html=1;fillColor=#fff2cc;strokeColor=none;align=left;rotation=0;" vertex="1" parent="1">
          <mxGeometry x="1085.75" y="250" width="634.25" height="32" as="geometry" />
        </mxCell>
        <mxCell id="-dcGEVKdCbEMzyg4yERX-67" value="Este directorio contiene las bibliotecas compartidas para arrancar el sistema operativo y ejecutar los archivos binarios (principalmente de /bin y /sbin." style="rounded=1;whiteSpace=wrap;html=1;fillColor=#E6FFCC;strokeColor=none;align=left;rotation=0;" vertex="1" parent="1">
          <mxGeometry x="1085.75" y="283" width="634.25" height="32" as="geometry" />
        </mxCell>
        <mxCell id="-dcGEVKdCbEMzyg4yERX-71" value="Los medios extraÃ­bles montables por el usuario y discos externos se montan aquÃ­." style="rounded=1;whiteSpace=wrap;html=1;fillColor=#fff2cc;strokeColor=none;align=left;rotation=0;" vertex="1" parent="1">
          <mxGeometry x="1085.75" y="315" width="634.25" height="32" as="geometry" />
        </mxCell>
        <mxCell id="-dcGEVKdCbEMzyg4yERX-72" value="Punto de montaje para sistemas de archivos montados temporalmente." style="rounded=1;whiteSpace=wrap;html=1;fillColor=#E6FFCC;strokeColor=none;align=left;rotation=0;" vertex="1" parent="1">
          <mxGeometry x="1085.75" y="348" width="634.25" height="32" as="geometry" />
        </mxCell>
        <mxCell id="-dcGEVKdCbEMzyg4yERX-73" value="" style="rounded=1;whiteSpace=wrap;html=1;fillColor=#fff2cc;strokeColor=none;align=left;rotation=0;" vertex="1" parent="1">
          <mxGeometry x="1085.75" y="382" width="634.25" height="32" as="geometry" />
        </mxCell>
        <mxCell id="-dcGEVKdCbEMzyg4yERX-74" value="" style="rounded=1;whiteSpace=wrap;html=1;fillColor=#E6FFCC;strokeColor=none;align=left;rotation=0;" vertex="1" parent="1">
          <mxGeometry x="1085.75" y="415" width="634.25" height="32" as="geometry" />
        </mxCell>
        <mxCell id="-dcGEVKdCbEMzyg4yERX-75" value="" style="rounded=1;whiteSpace=wrap;html=1;fillColor=#fff2cc;strokeColor=none;align=left;" vertex="1" parent="1">
          <mxGeometry x="1085.75" y="448" width="634.25" height="31" as="geometry" />
        </mxCell>
        <mxCell id="-dcGEVKdCbEMzyg4yERX-76" value="" style="rounded=1;whiteSpace=wrap;html=1;fillColor=#E6FFCC;strokeColor=none;align=left;rotation=0;" vertex="1" parent="1">
          <mxGeometry x="1085.75" y="480" width="634.25" height="32" as="geometry" />
        </mxCell>
        <mxCell id="-dcGEVKdCbEMzyg4yERX-77" value="" style="rounded=1;whiteSpace=wrap;html=1;fillColor=#fff2cc;strokeColor=none;align=left;rotation=0;" vertex="1" parent="1">
          <mxGeometry x="1085.75" y="512" width="634.25" height="32" as="geometry" />
        </mxCell>
        <mxCell id="-dcGEVKdCbEMzyg4yERX-78" value="" style="rounded=1;whiteSpace=wrap;html=1;fillColor=#E6FFCC;strokeColor=none;align=left;rotation=0;" vertex="1" parent="1">
          <mxGeometry x="1085.75" y="545" width="634.25" height="32" as="geometry" />
        </mxCell>
        <mxCell id="-dcGEVKdCbEMzyg4yERX-79" value="" style="rounded=1;whiteSpace=wrap;html=1;fillColor=#fff2cc;strokeColor=none;align=left;rotation=0;" vertex="1" parent="1">
          <mxGeometry x="1085.75" y="577" width="634.25" height="32" as="geometry" />
        </mxCell>
        <mxCell id="-dcGEVKdCbEMzyg4yERX-80" value="" style="rounded=1;whiteSpace=wrap;html=1;fillColor=#E6FFCC;strokeColor=none;align=left;rotation=0;" vertex="1" parent="1">
          <mxGeometry x="1085.75" y="610" width="634.25" height="32" as="geometry" />
        </mxCell>
      </root>
    </mxGraphModel>
  </diagram>
</mxfile>
